<svg width="617" height="559" viewBox="0 0 617 559" fill="none" xmlns="http://www.w3.org/2000/svg">
<path d="M133.029 282.75H44.9706L133.471 194.25H221.529L133.029 282.75ZM166.971 282.75L255.471 194.25H343.529L255.029 282.75H166.971ZM288.971 282.75L377.471 194.25H465.279L376.779 282.75H288.971ZM410.721 282.75L499.221 194.25H587.029L498.529 282.75H410.721ZM532.471 282.75L604 211.221V238.5V282.75H532.471ZM503.5 306.75H604V407.25V526.5C604 537.546 595.046 546.5 584 546.5H48C36.9543 546.5 28 537.546 28 526.5V407.25V306.75H138H260H381.75H503.5ZM99.5294 194.25L28 265.779V238.5V194.25H99.5294Z" stroke="white" stroke-width="24"/>
<path d="M19.7117 137.536L15.9151 110.522L96.7034 171.401L25.8701 181.356L19.7117 137.536ZM217.392 154.439L130.314 166.677L30.3587 91.3552L117.437 79.1172L217.392 154.439ZM251.003 149.715L151.048 74.3935L238.126 62.1554L338.081 137.477L251.003 149.715ZM371.692 132.754L271.737 57.4318L358.815 45.1937L458.77 120.516L371.692 132.754ZM492.381 115.792L392.425 40.47L479.504 28.232L579.459 103.554L492.381 115.792ZM593.903 84.3866L513.114 23.5083L583.948 13.5533L590.106 57.3727L593.903 84.3866Z" stroke="white" stroke-width="24"/>
</svg>
